<svg xmlns="http://www.w3.org/2000/svg" viewBox="0 0 256 256">
  <defs>
    <linearGradient id="g" x1="0" y1="0" x2="1" y2="1">
      <stop offset="0" stop-color="#7c4dff"/>
      <stop offset="1" stop-color="#00b8d4"/>
    </linearGradient>
  </defs>
  <rect width="256" height="256" rx="52" fill="url(#g)"/>
  <path d="M58 63h140a14 14 0 0 1 14 14v76a14 14 0 0 1-14 14h-56l-34 29v-29H58a14 14 0 0 1-14-14V77a14 14 0 0 1 14-14Z" fill="#fff" opacity=".96"/>
  <path d="M74 94h91M74 119h69M74 144h48" fill="none" stroke="#6447d7" stroke-width="12" stroke-linecap="round"/>
  <path d="m164 132 17 17 34-39" fill="none" stroke="#00a5bd" stroke-width="13" stroke-linecap="round" stroke-linejoin="round"/>
</svg>
